
        <svg xmlns="http://www.w3.org/2000/svg" xmlns:xlink="http://www.w3.org/1999/xlink" version="1.1" width="3162.092990189109" 
        height="944.6390265041118" viewBox="0 0 3162.092990189109 944.6390265041118">
			<rect fill="#ffffff" width="3162.092990189109" height="944.6390265041118"/>
			<g transform="scale(8.104649509455426) translate(10, 10)">
				<defs id="SvgjsDefs4141"></defs><g id="SvgjsG4142" featureKey="7KWit6-0" transform="matrix(3.502285255023467,0,0,3.502285255023467,-122.79346589027607,-128.27133106681433)" fill="#545454"><title xmlns="http://www.w3.org/2000/svg">1.3</title><desc xmlns="http://www.w3.org/2000/svg">Created with Sketch.</desc><g xmlns="http://www.w3.org/2000/svg" stroke-width="1" fill-rule="evenodd"><g><path d="M35.7859447,50.4201179 C34.7995947,49.9119508 34.823173,49.1527239 35.8353931,48.7256935 L64.1646069,36.7743065 C65.1782665,36.3466688 65.7767156,36.8686881 65.4996338,37.9466752 L59.3033495,62.0533248 C59.0270049,63.1284438 58.0528651,63.512542 57.1217394,62.9074579 L50.482581,58.5930571 C50.015395,58.2894602 49.3612983,58.3996449 49.0281986,58.8306429 L46.8541724,61.6436174 C46.178295,62.5181358 45.3399446,62.3773554 44.9809847,61.3271873 L43.0707202,55.7385444 C42.7120646,54.6892665 41.6290597,53.4304882 40.6353721,52.9185408 L35.7859447,50.4201179 Z M46.704007,58.4653481 L47.3996678,56.3766233 C47.5763673,55.8460824 48.0165375,55.0975993 48.3867221,54.6931102 L59.1728081,42.9074905 C59.9183673,42.0928413 59.7988955,41.9656663 58.9110036,42.6179269 L45.0255028,52.818453 C44.5727473,53.1510549 44.3326715,53.8447321 44.4752294,54.378145 L45.5563915,58.4235602 C45.8421409,59.4927568 46.3557883,59.5108763 46.704007,58.4653481 Z" stroke="none" fill="#545454"></path></g></g></g><g id="SvgjsG4143" featureKey="ewgXDI-0" transform="matrix(3.80647919021734,0,0,3.80647919021734,123.1173922061165,-3.305966747822694)" fill="#545454"><path d="M4.18 5.859999999999999 l0 14.14 l-3.16 0 l0 -14.14 l3.16 0 z M13.7 9.6 l3.16 0 l0 10.4 l-3.16 0 l0 -1.04 c-0.14 0.36 -1.08 1.24 -2.68 1.24 c-2.38 0 -5.12 -1.7 -5.12 -5.42 c0 -3.58 2.74 -5.36 5.12 -5.36 c1.6 0 2.54 0.92 2.68 1.14 l0 -0.96 z M11.48 17.42 c1.3 0 2.36 -0.9 2.36 -2.64 c0 -1.68 -1.06 -2.58 -2.36 -2.58 c-1.36 0 -2.52 0.92 -2.52 2.58 c0 1.72 1.16 2.64 2.52 2.64 z M22.7 20.16 c-1.94 0 -3.92 -1.3 -3.92 -4.6 l0 -5.96 l3.16 0 l0 5.74 c0 1.58 0.54 2.08 1.54 2.08 c1.42 0 2.24 -1.38 2.44 -1.98 l0 -5.84 l3.16 0 l0 10.4 l-3.16 0 l0 -1.8 c-0.2 0.5 -1.26 1.96 -3.22 1.96 z M37.5 9.44 c1.94 0 3.92 1.3 3.92 4.6 l0 5.96 l-3.16 0 l0 -5.74 c0 -1.58 -0.54 -2.08 -1.54 -2.08 c-1.42 0 -2.24 1.38 -2.44 1.98 l0 5.84 l-3.16 0 l0 -10.4 l3.16 0 l0 1.8 c0.2 -0.5 1.26 -1.96 3.22 -1.96 z M48.46 9.42 c1.9 0 3.5 0.8 4.48 2.48 l-2.4 1.14 c-0.52 -0.44 -0.94 -0.84 -2.04 -0.84 c-1.2 0 -2.42 0.92 -2.42 2.62 c0 1.68 1.22 2.56 2.42 2.56 c1.1 0 1.52 -0.36 2.04 -0.8 l2.44 1.14 c-1.02 1.68 -2.58 2.44 -4.52 2.44 c-2.32 0 -5.44 -1.66 -5.44 -5.34 c0 -3.62 3.12 -5.4 5.44 -5.4 z M60.98 9.44 c1.94 0 3.92 1.3 3.92 4.6 l0 5.96 l-3.16 0 l0 -5.74 c0 -1.58 -0.54 -2.08 -1.54 -2.08 c-1.42 0 -2.24 1.38 -2.44 1.98 l0 5.84 l-3.16 0 l0 -14.14 l3.16 0 l0 5.54 c0.2 -0.5 1.26 -1.96 3.22 -1.96 z"></path></g>
			</g>
		</svg>
	